<?xml version="1.0" standalone="no"?>
<!DOCTYPE svg PUBLIC "-//W3C//DTD SVG 20010904//EN"
 "http://www.w3.org/TR/2001/REC-SVG-20010904/DTD/svg10.dtd">
<svg version="1.0" xmlns="http://www.w3.org/2000/svg"
 width="1088.000000pt" height="1088.000000pt" viewBox="0 0 1088.000000 1088.000000"
 preserveAspectRatio="xMidYMid meet">
<metadata>
Created by potrace 1.11, written by Peter Selinger 2001-2013
</metadata>
<g transform="translate(0.000000,1088.000000) scale(0.100000,-0.100000)"
fill="#000000" stroke="none">
<path d="M1680 10825 c0 -13 427 -15 3785 -15 2184 0 3785 4 3785 9 0 5 -10
11 -22 15 -13 3 -1716 6 -3785 6 -3338 0 -3763 -2 -3763 -15z"/>
<path d="M5435 10647 c-57 -23 -92 -46 -125 -84 -120 -136 -111 -338 19 -441
26 -20 98 -64 160 -97 191 -101 247 -169 245 -300 -2 -130 -89 -216 -220 -216
-128 0 -233 102 -290 284 -10 31 -23 56 -28 54 -14 -5 -21 -316 -8 -329 5 -5
19 0 34 12 15 11 31 20 36 20 6 0 46 -14 89 -32 72 -30 87 -32 193 -33 104 0
120 3 171 26 72 34 134 96 168 168 22 47 26 70 26 141 0 77 -3 92 -33 153 -43
86 -92 126 -266 214 -191 98 -246 156 -246 262 0 104 68 181 166 189 130 11
221 -74 280 -260 10 -32 21 -58 26 -58 4 0 8 72 8 160 0 103 -4 160 -10 160
-6 0 -13 -7 -16 -15 -11 -27 -41 -26 -123 5 -90 33 -197 40 -256 17z"/>
<path d="M6920 10637 c-161 -49 -271 -140 -340 -281 -56 -114 -74 -190 -73
-316 2 -243 93 -411 268 -495 198 -96 423 -92 627 11 48 24 81 34 100 32 l28
-5 0 106 c0 137 11 178 53 196 18 7 49 16 70 20 90 17 19 25 -228 25 -146 0
-265 -4 -265 -9 0 -4 22 -11 49 -14 101 -12 141 -58 141 -159 0 -106 -80 -211
-183 -239 -190 -51 -382 103 -443 357 -22 91 -23 266 -1 356 22 89 66 185 121
262 73 103 160 149 281 149 155 0 255 -85 336 -283 18 -44 37 -80 43 -80 9 0
0 359 -9 369 -3 3 -18 -10 -33 -29 l-28 -33 -95 38 c-89 37 -100 39 -219 42
-108 3 -135 0 -200 -20z"/>
<path d="M3566 10631 c-6 -10 5 -15 62 -26 49 -10 89 -56 102 -119 7 -37 10
-184 8 -448 -3 -447 -4 -450 -77 -487 -22 -12 -52 -21 -66 -21 -16 0 -25 -6
-25 -15 0 -13 41 -15 308 -15 480 1 560 14 641 106 104 118 90 320 -29 427
-45 41 -126 77 -171 77 -33 0 -21 14 39 46 98 52 144 156 122 274 -15 82 -52
129 -135 170 l-69 35 -352 3 c-229 2 -354 0 -358 -7z m592 -41 c58 -26 79 -45
105 -95 26 -51 34 -159 17 -221 -29 -102 -112 -149 -275 -156 l-80 -3 -3 240
c-1 132 0 246 3 254 8 21 172 7 233 -19z m49 -515 c71 -21 126 -65 154 -122
20 -40 24 -63 24 -143 0 -86 -3 -100 -29 -148 -56 -101 -168 -154 -282 -135
-72 12 -108 34 -132 77 -14 26 -18 67 -20 259 l-3 227 119 0 c76 0 136 -5 169
-15z"/>
<path d="M1680 9322 c0 -17 1014 -22 4267 -22 2929 0 3303 2 3303 15 0 13
-427 15 -3785 15 -2082 0 -3785 -4 -3785 -8z"/>
<path d="M6155 8864 c-16 -2 -73 -9 -125 -15 -116 -13 -141 -19 -134 -30 3 -5
77 -9 165 -9 156 0 160 -1 184 -25 18 -17 25 -35 25 -63 0 -22 3 -59 6 -84 l6
-44 -103 -48 c-57 -27 -109 -50 -116 -53 -6 -3 -23 14 -38 37 -26 41 -26 41
-43 20 -25 -29 -99 -37 -146 -15 -25 12 -40 14 -49 7 -6 -5 -37 -12 -67 -15
-30 -3 -65 -8 -76 -12 -18 -6 -28 3 -60 49 -22 31 -43 56 -48 56 -4 0 -34 -23
-65 -52 -87 -80 -136 -106 -428 -231 -303 -130 -327 -136 -411 -93 -56 29 -85
58 -80 83 2 11 43 39 116 77 65 34 112 64 112 73 0 18 -208 -89 -246 -126 -48
-48 -25 -88 95 -166 l71 -46 -6 -40 c-9 -52 14 -79 65 -79 92 0 190 25 330 85
56 24 79 27 186 30 68 1 131 7 141 13 14 8 18 20 15 55 -2 38 2 48 24 65 14
11 56 26 94 32 63 12 75 11 170 -14 56 -14 113 -26 127 -26 15 0 121 -48 236
-107 217 -110 287 -159 323 -227 11 -20 30 -39 43 -43 22 -5 26 -15 36 -85 4
-30 1 -37 -15 -41 -12 -3 -27 -23 -36 -46 -14 -35 -22 -43 -56 -52 -64 -17
-140 5 -197 56 -33 29 -255 155 -275 155 -9 0 -34 17 -58 38 -55 50 -184 125
-203 118 -18 -7 -18 -39 1 -76 8 -16 19 -46 23 -66 7 -37 8 -37 112 -71 202
-65 305 -130 360 -226 l29 -51 12 27 c10 22 15 25 26 15 22 -18 43 -64 43 -95
0 -18 9 -35 27 -49 25 -20 26 -23 13 -54 -15 -37 -121 -120 -152 -120 -12 0
-43 25 -74 59 -44 47 -67 63 -117 81 -104 37 -467 223 -454 233 9 7 9 10 0 13
-7 3 -15 22 -19 42 -9 51 -21 62 -63 62 -25 0 -53 11 -89 36 -64 43 -113 61
-203 75 -83 13 -109 3 -109 -41 0 -17 9 -38 19 -47 10 -10 93 -58 185 -108
103 -56 170 -99 178 -113 8 -15 52 -43 124 -77 138 -67 276 -169 426 -317
l113 -110 -44 -13 c-24 -8 -54 -24 -68 -37 l-24 -23 -155 79 c-186 95 -274
150 -281 177 -4 12 -11 18 -20 15 -15 -6 -67 16 -96 42 -9 8 -22 32 -27 52
-13 49 -46 90 -73 90 -11 0 -36 -5 -54 -12 -28 -10 -39 -9 -75 9 -24 11 -96
33 -161 48 -131 31 -120 34 -161 -37 l-16 -26 42 -7 c57 -10 110 -34 193 -87
39 -25 81 -49 95 -53 35 -10 50 -24 44 -40 -4 -9 19 -26 66 -51 39 -20 75 -45
81 -55 9 -17 6 -19 -26 -19 -47 0 -39 -10 43 -56 69 -38 228 -186 218 -202 -3
-5 12 -14 34 -21 48 -14 80 -53 80 -96 0 -30 -3 -32 -51 -43 -67 -16 -106 -15
-116 2 -4 8 -35 30 -68 48 -33 19 -65 45 -72 58 -13 27 -54 49 -91 50 -14 0
-26 9 -32 24 -4 13 -20 26 -33 30 -14 3 -51 26 -83 50 -33 24 -74 51 -91 60
-34 17 -42 43 -21 64 17 17 8 23 -102 68 -82 33 -106 39 -170 39 -65 0 -86 -5
-158 -37 -46 -21 -85 -38 -87 -38 -3 0 -5 9 -5 21 l0 21 -36 -21 c-42 -25 -45
-26 -38 -6 9 22 -1 19 -59 -20 -59 -40 -87 -46 -42 -10 20 16 25 25 15 25 -9
0 -21 -5 -28 -12 -10 -10 -18 -9 -41 5 -23 13 -33 14 -58 5 -26 -10 -35 -8
-63 12 l-33 23 37 30 c64 51 39 49 -39 -3 -41 -28 -75 -46 -75 -40 0 5 3 10 8
10 4 0 25 16 47 36 l40 36 -50 -27 c-27 -15 -65 -36 -82 -47 -42 -25 -43 -9
-2 21 44 33 29 36 -30 7 -28 -15 -51 -24 -51 -21 0 3 19 18 42 35 51 38 44 38
-37 1 -69 -32 -85 -27 -34 10 34 24 109 49 147 49 33 0 104 43 80 48 -10 2
-18 9 -18 17 0 7 -11 20 -25 29 -14 9 -25 23 -25 31 0 16 -31 28 -53 19 -23
-9 -46 19 -44 51 2 24 -3 29 -38 39 -49 14 -58 46 -24 82 l22 24 -42 0 c-34 0
-42 3 -37 15 3 9 0 15 -9 15 -8 0 -15 7 -15 15 0 10 -10 15 -28 15 -36 0 -44
8 -31 31 8 17 6 20 -21 25 -27 6 -30 10 -30 45 0 22 -5 39 -10 39 -6 0 -3 11
6 25 9 14 12 25 6 25 -6 0 -14 -4 -17 -10 -3 -5 -11 -10 -17 -10 -7 0 -1 12
13 28 14 15 32 36 40 46 13 18 13 18 -6 8 -11 -5 -33 -24 -49 -41 -35 -36 -46
-39 -46 -10 0 11 23 45 52 75 51 54 59 76 20 55 -33 -18 -35 -13 -12 25 29 51
13 65 -34 29 -36 -28 -48 -65 -21 -65 24 0 17 -25 -19 -69 -60 -72 -106 -194
-106 -283 0 -26 2 -29 15 -18 9 7 17 11 20 9 9 -9 -35 -88 -54 -99 -20 -10
-23 -7 -38 27 -8 21 -18 65 -20 98 -6 71 20 261 46 337 42 121 127 253 186
290 38 23 125 24 171 2 34 -16 34 -16 77 20 180 155 303 237 420 282 97 37
106 48 34 41 -44 -4 -93 -22 -195 -71 -203 -96 -310 -138 -333 -131 -11 4 -29
26 -39 50 -28 64 -32 65 -215 15 -63 -17 -114 -22 -238 -24 -155 -3 -193 4
-151 27 26 15 74 63 74 75 0 6 -12 24 -26 41 -19 23 -34 31 -59 31 -48 0 -100
-63 -115 -139 -6 -31 -26 -105 -44 -166 -19 -60 -37 -122 -40 -137 -4 -20 -38
-53 -112 -112 l-106 -84 -33 21 c-18 12 -41 27 -51 33 -18 11 -18 13 4 42 12
17 22 44 22 59 0 23 21 50 106 133 58 58 126 134 152 170 83 117 142 186 193
224 27 21 51 37 53 35 2 -2 13 -23 24 -45 19 -38 38 -54 63 -54 5 0 -5 24 -22
53 -17 28 -37 67 -45 85 -13 28 -19 32 -53 32 -50 0 -78 -23 -143 -116 -28
-40 -54 -72 -56 -69 -2 2 3 23 12 46 9 23 15 43 13 45 -1 2 -21 -12 -42 -32
-22 -19 -52 -37 -67 -40 l-27 -6 25 -38 c14 -20 27 -54 31 -74 6 -36 6 -36
-31 -36 -57 0 -90 -23 -119 -82 l-26 -53 0 80 c-1 93 -15 151 -43 182 -11 12
-23 37 -27 55 -6 28 -11 33 -40 36 -34 3 -81 -20 -81 -40 0 -6 9 -3 20 7 11
10 22 16 24 14 5 -5 -37 -109 -45 -109 -3 0 -10 12 -15 28 l-10 27 -22 -42
-22 -43 -93 -1 c-134 -2 -134 -2 -228 52 -149 86 -295 132 -363 115 -31 -8
-54 -49 -90 -163 -16 -53 -23 -93 -20 -113 8 -39 20 -31 28 21 4 22 15 57 25
77 19 38 57 79 66 71 2 -3 -7 -35 -20 -72 -39 -107 -48 -187 -35 -294 13 -97
4 -172 -26 -220 -8 -12 -14 -38 -14 -58 0 -22 -4 -34 -10 -30 -6 4 -10 -26
-10 -82 0 -80 -2 -89 -19 -89 -17 0 -20 17 -36 151 -10 82 -21 161 -25 175 -6
24 -8 23 -30 -20 -21 -42 -22 -52 -17 -180 6 -148 30 -302 73 -480 38 -160 37
-253 -4 -383 -35 -107 -67 -263 -77 -373 -8 -80 2 -122 40 -174 l25 -34 0 178
c0 170 1 178 20 183 11 3 22 16 25 29 3 13 7 36 11 50 3 15 9 23 14 18 9 -10
74 -183 85 -227 12 -46 -4 -94 -45 -143 -46 -53 -49 -64 -16 -64 31 0 92 69
106 119 16 56 12 95 -16 177 -23 65 -25 78 -12 90 22 22 159 44 274 44 96 0
111 3 169 30 76 35 97 36 239 11 121 -22 141 -19 192 30 31 30 86 50 112 42 6
-3 12 -14 12 -24 0 -40 42 -225 61 -269 16 -36 19 -57 13 -107 -7 -65 -1 -76
22 -45 18 24 48 4 52 -37 3 -32 11 -38 28 -22 5 5 37 12 71 16 l62 7 27 -56
c24 -51 25 -59 13 -87 -23 -56 -57 -87 -129 -114 -85 -33 -132 -66 -194 -138
-58 -68 -113 -97 -185 -97 -46 0 -111 21 -111 36 0 3 18 3 40 -1 46 -8 50 2
17 33 -29 27 -77 28 -108 3 l-24 -19 21 -29 c31 -42 70 -56 149 -56 97 0 161
30 264 126 78 74 168 123 210 115 23 -5 31 -62 24 -176 -5 -84 -3 -112 12
-155 17 -51 17 -55 -7 -205 -19 -116 -22 -152 -12 -148 13 5 14 1 32 -146 7
-52 6 -68 -4 -68 -7 0 -15 13 -19 30 -4 16 -10 32 -14 35 -5 2 -23 -19 -41
-47 -19 -28 -62 -82 -97 -118 -72 -77 -73 -102 -2 -35 27 25 60 50 74 55 96
36 241 -31 266 -123 18 -67 0 -105 -84 -182 -39 -36 -82 -68 -95 -72 -12 -3
-51 -2 -87 2 l-64 7 -45 71 -45 71 -11 -29 c-6 -16 -14 -58 -17 -92 -3 -35
-11 -67 -17 -72 -6 -5 -51 -30 -101 -56 -85 -44 -134 -85 -135 -112 0 -9 22
-11 83 -7 70 5 93 2 160 -19 43 -14 87 -33 98 -43 35 -32 18 -104 -26 -104
-13 0 -76 25 -141 55 -64 30 -135 58 -158 62 l-41 6 91 -95 c50 -53 112 -130
138 -172 51 -85 52 -88 32 -80 -25 10 -28 -16 -7 -52 25 -42 26 -52 5 -75 -15
-17 -15 -20 3 -46 36 -51 37 -56 8 -37 -27 18 -28 18 -21 -3 5 -16 1 -25 -15
-33 -22 -12 -22 -18 -3 -93 6 -25 -1 -35 -60 -95 l-67 -67 -20 25 -20 25 4
-32 c3 -32 -5 -43 -18 -23 -13 21 -25 9 -23 -23 3 -28 0 -32 -24 -35 -22 -3
-27 0 -22 12 5 13 -1 16 -32 16 l-38 0 34 -35 c30 -31 31 -35 15 -41 -13 -5
-24 0 -39 19 -15 18 -31 27 -51 27 l-28 0 24 -26 24 -25 -28 10 c-16 6 -37 16
-47 21 -14 7 -23 6 -32 -4 -11 -11 -15 -11 -25 3 -12 15 -14 15 -24 -1 -13
-22 -41 -23 -81 -2 -19 10 -44 14 -64 11 -19 -3 -37 -1 -40 5 -4 7 -10 5 -16
-6 -14 -26 -24 -12 -52 72 -15 42 -31 84 -37 92 -11 15 -10 7 7 -83 9 -45 -11
-24 -37 39 l-19 49 3 -42 c1 -24 1 -43 -1 -43 -2 0 -12 19 -22 43 l-20 42 0
-39 0 -40 -28 27 c-30 28 -52 35 -52 15 0 -20 -15 2 -32 50 l-17 47 6 -50 c8
-68 -5 -52 -22 26 -12 58 -13 60 -14 25 -1 -27 -4 -37 -11 -30 -17 17 -24 221
-11 304 17 110 48 166 145 257 96 92 177 137 321 182 55 17 111 38 125 46 24
14 23 14 -26 15 -59 0 -283 -72 -377 -122 -110 -59 -203 -187 -242 -334 -9
-33 -19 -123 -22 -205 -5 -129 -3 -158 16 -242 65 -280 214 -434 556 -570 181
-72 224 -81 370 -81 121 0 136 2 220 31 49 18 90 31 91 30 1 -1 -4 -54 -12
-117 -20 -150 -15 -190 51 -492 63 -288 97 -375 187 -473 98 -108 263 -202
488 -280 220 -76 358 -106 565 -125 66 -6 196 -20 290 -31 139 -17 180 -19
227 -9 48 9 62 8 87 -5 34 -17 103 -20 131 -5 13 7 21 7 25 0 4 -6 21 -8 40
-4 21 4 43 0 63 -10 41 -21 371 -22 627 -2 99 8 250 17 335 21 338 13 541 39
730 95 90 27 518 192 571 221 11 5 28 27 39 48 10 22 75 92 144 157 69 64 130
129 135 143 6 14 31 96 57 181 41 138 47 169 51 276 6 132 -6 193 -53 286 -52
102 -22 92 106 -38 160 -161 278 -243 455 -314 339 -137 478 -113 624 106 27
40 59 103 72 141 23 66 24 78 23 358 0 328 12 251 -113 705 -33 118 -58 216
-56 218 6 7 116 -340 146 -463 16 -66 34 -160 40 -210 6 -49 13 -93 15 -96 6
-11 278 -7 292 4 9 7 12 363 12 1718 0 1880 5 1739 -60 1739 -25 0 -29 5 -39
46 -7 26 -10 48 -9 50 2 2 33 7 68 11 l65 9 -2 35 c-1 19 -13 82 -27 141 -30
122 -32 164 -12 268 25 127 37 306 25 362 -6 27 -13 47 -16 44 -3 -2 -11 -37
-19 -77 -16 -83 -43 -122 -84 -117 -19 2 -28 12 -38 43 -37 120 -71 175 -142
234 -50 41 -75 46 -99 22 -17 -17 -21 -34 -21 -85 0 -36 -4 -75 -9 -88 -5 -13
-41 -55 -79 -95 l-70 -72 -70 112 c-67 108 -114 157 -152 157 -18 0 -50 -67
-50 -105 -1 -11 -7 -31 -15 -45 l-13 -25 -11 27 c-22 58 -24 124 -6 156 31 52
6 139 -79 276 -35 59 -44 86 -28 86 16 0 239 -235 295 -312 58 -78 99 -118
124 -118 19 0 11 29 -50 180 -43 106 -51 138 -55 208 -5 86 4 103 32 60 7 -13
40 -86 72 -163 62 -147 69 -188 50 -284 -13 -63 14 -51 31 15 18 70 16 128 -7
213 -44 157 -118 291 -218 393 -31 32 -53 60 -51 63 15 15 136 -65 239 -158
193 -174 316 -324 355 -434 28 -83 39 -98 68 -101 l28 -3 -61 113 c-33 62 -84
160 -112 218 -39 79 -66 119 -109 161 -31 31 -65 69 -75 84 l-18 28 24 -8
c104 -30 206 -118 275 -235 26 -44 51 -80 56 -80 5 0 18 -9 29 -20 19 -19 20
-19 20 -1 0 38 -38 139 -69 185 -18 26 -59 77 -92 114 -33 37 -76 91 -95 120
-57 84 -66 88 -198 73 -179 -20 -277 -41 -419 -91 -63 -22 -117 -33 -185 -38
l-97 -7 -18 -100 c-9 -55 -20 -171 -24 -257 -7 -184 1 -179 -118 -67 -65 62
-135 152 -135 173 0 4 16 4 35 0 32 -6 35 -4 35 17 0 12 -10 33 -21 46 -20 20
-20 23 -5 29 23 9 46 57 46 97 0 28 -10 43 -58 90 -60 57 -106 76 -154 64 -34
-9 -155 -112 -174 -150 -10 -17 -17 -51 -17 -74 l0 -43 -69 0 c-43 0 -80 -6
-99 -16 -30 -15 -30 -15 -84 34 -120 110 -360 254 -654 392 -113 54 -244 116
-290 139 -47 22 -92 40 -100 40 -9 -1 -29 -4 -46 -5z m102 -418 c-49 -35 -137
-63 -157 -51 -7 5 1 15 21 27 75 45 106 58 144 58 l40 0 -48 -34z m-4362 -108
c-3 -73 -9 -142 -12 -153 -4 -14 -2 -17 5 -10 6 6 12 21 14 35 2 14 10 25 18
25 10 0 14 -8 13 -25 -6 -53 -14 -71 -31 -68 -9 1 -28 -5 -42 -15 -13 -9 -38
-17 -54 -17 l-29 0 6 63 c11 118 46 250 73 275 44 39 47 32 39 -110z m5735 78
c0 -7 6 -19 14 -25 8 -7 17 -28 21 -48 10 -56 58 -143 110 -201 26 -29 103
-95 171 -148 132 -103 155 -129 91 -105 -24 9 -24 9 -15 -23 8 -26 6 -40 -11
-74 -26 -52 -26 -67 0 -93 61 -61 -62 0 -153 76 -92 77 -199 212 -255 322 -25
51 -44 96 -40 99 3 3 13 -8 22 -25 17 -33 42 -41 51 -16 6 14 -10 186 -22 248
-3 16 -1 27 5 27 6 0 11 -6 11 -14z m-5016 -34 c3 -21 20 -60 37 -86 29 -43
31 -51 19 -69 -96 -155 -179 -420 -205 -657 -13 -113 -22 -110 -29 8 -7 108
-9 112 -30 112 -33 0 -73 -35 -85 -73 -5 -17 -15 -84 -22 -147 -7 -63 -16
-122 -20 -130 -13 -23 -10 86 6 269 13 151 13 197 1 160 -3 -8 -10 -48 -15
-90 -11 -83 -24 -120 -129 -372 -79 -191 -106 -234 -177 -288 -48 -36 -135
-76 -135 -62 0 3 16 34 35 69 19 34 35 67 35 72 0 6 -14 7 -37 1 -21 -4 -39
-6 -41 -4 -2 2 8 19 23 39 33 43 61 117 81 210 20 99 60 174 153 291 130 163
132 167 142 308 10 143 23 205 55 269 39 78 54 71 34 -17 -26 -116 -33 -393
-10 -368 5 4 34 82 65 173 62 177 80 220 128 290 39 58 99 130 108 130 3 0 9
-17 13 -38z m3846 2 c0 -12 5 -14 18 -9 60 26 90 28 136 11 47 -18 61 -36 27
-36 -11 0 -23 -4 -26 -10 -4 -6 31 -10 97 -10 105 0 119 -12 30 -26 -56 -8
-66 -26 -10 -19 44 6 42 3 -24 -24 -20 -8 -16 -10 22 -11 l45 -2 -50 -13 -50
-13 49 -1 c42 -1 47 -3 36 -16 -11 -13 -7 -15 24 -15 20 0 36 -4 36 -10 0 -5
15 -10 33 -10 l32 -1 -30 -14 -30 -13 30 -2 c29 -1 29 -1 11 -15 -19 -14 -18
-15 10 -15 41 0 46 -7 29 -41 -20 -38 -20 -38 23 -34 29 4 21 -1 -33 -20 l-70
-25 59 4 c71 6 62 -8 -14 -22 l-55 -10 60 -2 60 -2 -40 -13 c-38 -12 -38 -13
-11 -14 l30 -1 -22 -20 c-16 -15 -20 -28 -16 -45 5 -21 1 -25 -38 -35 -23 -6
-59 -15 -78 -21 -68 -18 -76 -14 -208 106 -70 63 -152 133 -182 155 -30 22
-56 45 -58 50 -5 14 37 32 132 56 98 25 139 49 144 84 3 20 1 22 -20 15 -94
-29 -133 -35 -228 -35 -99 1 -109 3 -170 35 -65 33 -65 33 -35 41 17 4 93 24
170 45 166 45 155 43 155 23z m-4379 -171 c-24 -157 -25 -200 -2 -229 27 -35
27 -42 -10 -156 -28 -84 -34 -95 -44 -80 -37 51 -46 213 -20 336 14 65 73 211
83 202 2 -3 -1 -35 -7 -73z m1169 35 c0 -22 -102 -268 -110 -268 -22 0 -15 27
37 149 52 119 73 153 73 119z m4981 -95 c58 -135 274 -942 256 -959 -2 -3 -8
12 -12 33 -9 52 -104 305 -120 322 -19 19 -32 7 -40 -36 -3 -21 -13 -48 -21
-61 -13 -20 -12 -29 12 -95 21 -57 27 -94 30 -177 l4 -105 -40 120 c-72 214
-127 417 -160 587 l-33 165 48 127 c27 69 50 126 52 126 2 0 13 -21 24 -47z
m-4851 -17 c-28 -67 -57 -185 -85 -352 -16 -95 -33 -158 -47 -183 -20 -35 -21
-42 -9 -78 8 -23 10 -50 6 -63 -10 -33 -20 -11 -35 79 -11 67 -14 73 -26 56
-26 -36 -26 -5 1 107 38 160 72 263 110 338 36 70 94 155 101 147 2 -2 -5 -25
-16 -51z m4168 -112 c29 -65 70 -164 90 -219 33 -92 36 -109 36 -210 0 -78 -5
-129 -18 -175 -18 -62 -46 -112 -46 -81 0 44 -55 473 -71 556 -17 91 -44 189
-64 239 -6 14 -4 17 6 14 7 -2 38 -58 67 -124z m-4488 40 c0 -45 -6 -77 -20
-104 -22 -43 -31 -48 -49 -27 -8 10 -4 36 15 103 14 49 28 92 31 97 12 20 23
-11 23 -69z m4365 -4 c19 -36 19 -74 1 -89 -10 -8 -16 -8 -23 1 -10 13 -53
135 -53 151 0 16 60 -34 75 -63z m-4521 -132 c-4 -13 -7 -131 -7 -263 0 -210
9 -352 30 -474 4 -23 2 -32 -5 -27 -7 4 -13 -11 -17 -41 -3 -27 -10 -58 -15
-70 -10 -25 -88 -69 -100 -56 -19 20 -112 606 -114 718 -1 66 41 125 131 185
86 56 108 62 97 28z m160 -243 c-19 -99 -32 -95 -33 12 -1 42 6 81 22 120 l22
58 3 -50 c2 -27 -4 -90 -14 -140z m4820 36 c90 -68 126 -109 126 -142 0 -17
-29 -148 -64 -292 -35 -144 -67 -277 -71 -295 -4 -19 -19 -48 -34 -65 -16 -18
-34 -43 -40 -56 -17 -32 -29 -16 -33 44 -4 67 -27 72 -64 13 -34 -55 -33 -53
-44 -42 -7 7 -2 31 14 71 50 121 98 324 122 513 17 140 17 135 -1 120 -12 -10
-15 -10 -15 0 0 20 43 170 48 170 3 0 28 -17 56 -39z m-6045 -88 c-1 -72 -2
-74 -10 -33 -11 64 -11 110 1 110 6 0 9 -32 9 -77z m6801 -40 c0 -5 7 -29 15
-55 15 -52 10 -58 -25 -30 -19 16 -22 24 -16 55 4 20 11 37 16 37 6 0 10 -3
10 -7z m-6033 -55 c-4 -18 -9 -70 -13 -114 -11 -133 -36 -144 -42 -19 -3 61 0
82 18 120 26 53 45 60 37 13z m4927 24 c8 -14 -18 -56 -45 -71 -29 -16 -84 -9
-115 14 -18 15 -18 16 9 40 23 21 38 25 87 25 32 0 61 -4 64 -8z m1206 -189
c41 -27 109 -70 150 -94 92 -54 202 -156 229 -213 19 -39 29 -125 16 -138 -3
-3 -23 -2 -44 2 -28 5 -53 22 -93 61 -37 36 -107 84 -213 144 -87 50 -169 98
-182 108 -34 27 -48 61 -72 172 -12 55 -24 109 -27 119 -4 12 23 -4 77 -46 46
-36 118 -87 159 -115z m-1703 62 c55 -20 106 -45 116 -57 18 -21 18 -22 -3
-30 -18 -7 -20 -13 -15 -37 3 -16 2 -32 -3 -35 -18 -11 -103 26 -135 59 -86
88 -104 111 -100 123 7 19 35 15 140 -23z m1108 -153 c-3 -3 -11 0 -18 7 -17
17 -15 104 3 126 14 17 15 12 18 -55 2 -40 0 -75 -3 -78z m-6368 -229 c-8 -10
-27 -38 -41 -63 -15 -27 -26 -38 -26 -27 0 33 50 107 73 107 6 0 3 -8 -6 -17z
m1918 -41 c115 -48 252 -75 496 -97 l67 -6 4 -60 c6 -86 29 -105 238 -207 172
-84 177 -85 272 -93 83 -6 116 -15 235 -62 76 -30 163 -60 193 -67 30 -7 91
-29 135 -50 51 -24 101 -40 137 -43 54 -5 99 -22 181 -68 53 -30 216 -38 307
-15 81 21 337 144 479 231 75 45 117 65 140 65 33 0 80 38 106 83 9 17 14 17
70 -9 81 -38 149 -42 203 -15 49 25 62 46 62 100 0 44 -4 40 112 116 75 50
122 75 138 75 5 0 10 -18 10 -40 0 -65 22 -95 85 -119 31 -12 62 -21 70 -21
22 0 29 -21 31 -86 1 -47 8 -74 30 -113 36 -67 73 -93 138 -98 74 -6 79 -9 66
-33 -14 -27 -26 -26 -130 16 -93 37 -120 60 -120 104 -1 41 -19 0 -30 -66 -11
-66 -21 -80 -63 -90 -46 -9 -55 -20 -73 -80 l-15 -54 66 -322 c37 -178 73
-347 80 -375 23 -91 -3 -58 -34 45 -50 161 -129 446 -142 511 -11 51 -11 66 2
93 15 32 15 78 0 78 -4 0 -17 -31 -30 -70 -12 -38 -27 -73 -34 -77 -7 -4 -59
-8 -117 -8 l-105 0 -208 -103 c-408 -202 -545 -237 -922 -235 -115 1 -410 2
-655 2 -682 2 -978 22 -1110 75 -31 13 -110 59 -176 103 -216 145 -294 171
-373 122 l-33 -20 -25 23 c-41 38 -65 98 -74 182 -9 91 -40 162 -97 224 -29
31 -47 42 -68 42 -44 0 -54 16 -54 91 0 52 -6 76 -26 115 -24 46 -25 50 -10
81 16 35 15 37 -26 47 -26 6 -27 5 -22 -23 8 -37 -20 -57 -93 -67 l-51 -6 -31
43 c-41 55 -48 86 -27 107 13 14 20 14 34 4 47 -34 61 -36 85 -13 l24 21 18
-20 c26 -28 29 -19 10 26 -35 81 -35 83 -19 99 23 23 56 18 105 -14 24 -17 67
-35 94 -41 28 -6 88 -23 133 -37 127 -38 160 -26 203 72 23 52 37 68 54 60 6
-2 42 -17 80 -33z m-758 -25 c-6 -15 -107 -61 -107 -48 0 16 94 81 103 72 5
-5 7 -16 4 -24z m1853 -22 c56 -19 105 -36 106 -38 2 -2 -17 -18 -42 -36 -45
-33 -47 -33 -122 -26 -141 12 -174 30 -157 85 8 24 51 49 86 50 14 0 72 -16
129 -35z m2854 -123 c3 -5 -15 -18 -39 -30 -48 -23 -58 -15 -25 18 20 20 55
27 64 12z m177 -53 c18 -18 20 -28 15 -63 -9 -55 -26 -71 -26 -24 0 21 -10 50
-25 72 -23 34 -23 36 -5 36 11 0 29 -9 41 -21z m-92 -78 c28 2 51 0 51 -4 0
-12 -68 -174 -93 -221 l-21 -41 -6 40 -5 40 -74 3 -74 3 7 45 c3 25 24 84 46
131 l39 84 40 -41 c38 -40 42 -42 90 -39z m-2829 3 c26 -30 31 -43 26 -67 -8
-42 -11 -43 -52 -21 -45 24 -75 60 -67 82 19 53 50 55 93 6z m383 -19 c41 -19
56 -30 48 -38 -7 -7 -5 -14 6 -22 14 -10 -1 -14 -84 -20 -150 -11 -199 21
-133 86 27 27 36 31 68 26 20 -3 63 -17 95 -32z m342 -169 c61 -28 105 -68
105 -96 0 -24 7 -24 -65 1 -50 18 -75 20 -151 16 -97 -6 -114 0 -114 38 0 73
110 93 225 41z m250 -67 c19 -19 19 -19 -28 -19 -44 0 -62 12 -34 23 6 3 2 6
-10 6 -13 1 -23 5 -23 10 0 16 74 0 95 -20z m1667 -110 c13 -16 15 -26 7 -47
-14 -39 -43 -92 -50 -92 -19 0 -45 106 -35 146 6 22 11 25 34 20 15 -4 35 -16
44 -27z m102 -69 c19 -7 26 -17 26 -35 0 -33 -14 -32 -39 4 -31 43 -29 47 13
31z m-4354 -147 c0 -17 -7 -60 -14 -95 -8 -35 -22 -130 -31 -213 -18 -170 -42
-363 -52 -415 l-6 -35 -7 30 c-12 48 -11 163 0 145 7 -10 10 26 10 111 0 77 5
144 14 175 8 27 21 94 30 149 28 171 37 209 47 194 5 -8 9 -28 9 -46z m3834
-169 c9 -3 16 -15 16 -25 0 -11 10 -23 24 -29 31 -12 52 -48 37 -63 -8 -8 -21
-6 -48 8 -37 18 -44 20 -70 23 -17 3 -16 27 2 62 17 33 17 33 39 24z m-3313
-144 c12 -30 34 -115 48 -189 15 -74 33 -137 39 -139 7 -2 12 3 12 10 0 8 6
22 13 32 12 17 15 16 65 -3 29 -12 66 -21 82 -21 16 0 54 -9 85 -21 31 -12 59
-18 62 -15 3 3 -2 8 -11 12 -9 3 -16 10 -16 16 0 13 38 0 83 -29 40 -26 59
-25 37 2 -18 22 -6 29 30 17 25 -9 32 -8 37 3 3 8 10 12 15 9 6 -4 14 -1 18 6
6 10 33 7 126 -14 66 -15 123 -31 128 -36 15 -14 -21 -47 -62 -58 -37 -10 -37
-10 -6 -11 37 -1 70 -23 59 -40 -11 -20 -301 -7 -297 13 1 8 -9 15 -28 18 -18
3 -30 0 -30 -6 1 -27 20 -37 81 -41 87 -6 317 -15 408 -15 l74 0 -23 -25 -23
-24 33 9 c42 12 50 24 50 76 0 57 21 63 70 22 l39 -33 -45 -27 c-44 -28 -55
-53 -32 -76 7 -7 22 -12 34 -12 11 0 35 -5 51 -11 l31 -10 -4 -167 c-5 -242
-2 -226 -48 -230 -39 -3 -39 -3 -33 28 8 38 0 34 -40 -23 l-32 -44 51 -7 c65
-9 108 -48 108 -98 l-1 -33 -17 35 c-12 24 -28 39 -52 47 -44 15 -103 17 -95
3 3 -5 21 -10 39 -10 44 0 63 -23 84 -101 15 -55 21 -64 39 -62 23 3 36 -18
27 -42 -3 -8 -21 -24 -40 -36 -19 -11 -34 -23 -34 -25 0 -3 16 -4 36 -2 29 2
40 -3 55 -24 10 -14 56 -50 101 -79 79 -52 84 -54 156 -56 41 -1 77 -5 80 -8
3 -2 -2 -13 -10 -22 -25 -30 -29 -54 -13 -79 9 -13 20 -24 25 -24 11 0 44 63
54 102 4 20 14 29 34 34 85 18 144 48 215 111 20 18 46 33 56 33 31 0 34 16
11 59 -11 22 -20 43 -20 46 0 15 24 1 51 -30 17 -19 37 -35 45 -35 21 0 17 10
-13 43 -22 23 -25 31 -14 35 33 11 59 52 71 106 14 67 29 80 113 95 71 13 135
41 162 70 11 13 34 50 50 84 22 45 38 65 57 71 38 13 44 3 19 -31 -11 -15 -23
-48 -26 -73 -6 -42 -5 -44 9 -26 15 18 17 18 34 3 10 -9 25 -17 33 -17 9 0 29
-16 47 -35 28 -33 34 -35 74 -30 l43 6 -38 -21 c-36 -20 -37 -22 -22 -43 22
-31 19 -47 -16 -83 l-31 -32 22 -12 c24 -13 35 -7 54 32 8 16 21 24 46 26 61
4 75 11 98 41 19 26 20 34 10 56 -9 21 -8 28 7 45 24 26 14 35 -25 22 -35 -13
-35 -12 -44 55 -5 37 -3 44 21 61 33 24 23 45 -18 38 -90 -18 -90 -15 -6 25
48 23 87 46 87 52 0 6 -25 8 -65 4 -41 -4 -64 -3 -60 3 3 6 12 10 19 10 20 0
47 35 40 53 -3 10 -20 17 -42 19 l-37 4 35 11 c19 6 27 12 17 12 -10 1 -20 8
-24 17 -4 12 -14 14 -34 10 -40 -8 -36 0 14 26 l42 23 -42 3 c-60 4 -116 -13
-128 -40 -9 -19 -17 -23 -53 -21 -23 1 -42 0 -42 -2 0 -2 10 -20 22 -41 21
-36 21 -37 2 -50 -10 -7 -27 -21 -37 -30 -13 -14 -20 -15 -29 -6 -21 21 -56
15 -60 -10 -5 -35 -42 -31 -46 5 -2 15 -7 27 -12 27 -18 0 -40 -46 -40 -82 0
-42 12 -48 33 -17 19 26 31 9 22 -31 -13 -58 -87 -90 -127 -53 -23 21 -33 11
-18 -17 11 -21 17 -22 71 -16 61 7 72 0 42 -26 -33 -28 -77 -45 -163 -61 -47
-9 -95 -19 -107 -23 -37 -10 -27 14 15 35 l37 20 -36 1 c-36 0 -36 0 -42 52
-4 28 -5 54 -2 56 2 2 13 -14 25 -37 11 -23 25 -41 30 -41 6 0 10 25 10 55 0
53 -2 57 -31 69 -29 12 -30 14 -13 24 18 10 18 11 1 29 -22 25 -21 38 3 78 19
30 19 65 0 65 -17 0 -20 34 -4 51 12 14 31 19 65 19 26 0 50 4 53 9 3 5 -1 28
-9 51 -8 23 -15 44 -15 45 0 2 22 6 48 10 39 5 57 2 88 -14 29 -15 47 -19 69
-13 27 8 28 9 11 19 -16 9 -12 14 35 41 45 26 55 29 57 15 6 -24 -30 -66 -76
-88 -47 -23 -53 -35 -18 -35 42 0 75 18 96 52 17 27 20 47 18 113 -3 73 -5 80
-28 92 -23 11 -23 12 -5 18 59 20 75 29 81 48 6 20 7 20 18 -2 l12 -22 28 22
c22 17 30 19 36 9 7 -11 18 -9 58 8 28 12 61 22 73 22 17 0 20 5 17 24 -3 14
-2 42 2 63 l6 38 17 -32 c20 -38 32 -41 49 -13 19 30 31 24 25 -10 -5 -22 -3
-30 7 -30 14 0 26 30 26 68 0 12 4 22 8 22 5 0 6 -14 4 -31 -3 -22 -1 -30 7
-25 6 4 11 15 11 24 0 9 5 24 11 32 8 11 9 7 5 -17 -3 -18 -2 -33 3 -33 5 0
12 20 15 45 8 48 22 57 49 27 14 -15 17 -68 19 -435 2 -255 -1 -418 -6 -420
-6 -2 -13 -66 -17 -143 -8 -152 -19 -229 -50 -342 -33 -126 -108 -252 -150
-252 -19 0 -23 8 -38 93 -9 52 3 77 38 77 14 0 17 -6 13 -30 -2 -16 0 -30 6
-30 11 0 66 129 58 137 -2 3 -17 -5 -33 -16 l-28 -21 -52 22 c-58 24 -56 25
-158 -37 l-39 -24 51 -6 c28 -4 56 -11 63 -15 7 -4 14 -42 17 -96 4 -63 11
-96 23 -111 10 -13 21 -48 25 -79 8 -69 28 -126 57 -166 l22 -31 -30 7 c-40
10 -75 37 -99 77 -17 29 -20 53 -21 161 -1 106 -5 132 -21 160 -24 41 -51 46
-102 17 -48 -27 -52 -35 -40 -85 11 -49 12 -94 1 -94 -4 0 -21 47 -37 105 -18
66 -33 105 -42 105 -20 0 -16 -97 7 -171 10 -34 16 -67 13 -72 -15 -25 -177
-75 -316 -97 -145 -23 -571 -53 -767 -54 -171 0 -228 3 -340 22 -160 27 -165
29 -185 48 -21 22 -19 113 5 204 33 127 24 180 -31 180 -29 0 -30 -1 -15 -22
27 -39 19 -99 -39 -266 -30 -88 -55 -168 -55 -178 0 -10 7 -26 17 -36 15 -17
14 -18 -15 -18 -39 0 -52 22 -52 90 l0 52 -60 -52 c-33 -28 -63 -49 -68 -46
-5 3 -12 23 -16 45 -8 51 -47 83 -119 100 -107 24 -194 104 -236 216 -38 102
-57 272 -96 880 -18 285 -31 371 -90 614 -25 101 -45 186 -45 190 1 17 42 -50
61 -99z m3593 3 c45 -191 64 -293 52 -293 -7 0 -26 65 -49 168 -40 180 -42
192 -28 192 5 0 16 -30 25 -67z m-3887 -283 c49 -145 53 -151 50 -100 -2 43 1
55 14 58 13 2 17 -9 22 -50 4 -34 21 -82 48 -133 23 -44 58 -112 78 -152 37
-74 51 -88 51 -53 0 28 26 25 46 -6 14 -20 15 -33 8 -62 -8 -29 -6 -46 7 -79
34 -80 43 -158 30 -244 -9 -58 -9 -84 -1 -99 9 -17 8 -27 -5 -47 -12 -17 -14
-28 -6 -36 5 -5 7 -22 4 -37 -3 -15 2 -40 10 -56 8 -16 25 -67 37 -114 39
-147 80 -221 187 -331 52 -54 117 -113 144 -131 26 -18 51 -39 53 -45 8 -19
-62 -133 -82 -135 -9 0 -23 -1 -29 -1 -25 1 -12 -14 20 -24 l32 -9 -52 -18
c-63 -21 -68 -36 -12 -36 32 0 40 -3 35 -15 -3 -8 1 -21 9 -28 8 -9 10 -18 4
-24 -12 -12 11 -61 33 -69 27 -8 32 -48 15 -132 -8 -42 -14 -79 -12 -80 7 -7
36 58 49 110 l13 53 84 0 84 0 3 -35 c9 -90 -54 -180 -145 -206 -53 -15 -56
-15 -82 3 -34 25 -161 38 -161 17 0 -8 -6 -14 -14 -14 -8 0 -38 -16 -67 -37
-49 -33 -63 -37 -142 -43 -103 -8 -121 -19 -88 -54 27 -29 89 -46 169 -46 77
0 143 20 222 69 36 22 69 36 73 31 16 -15 -5 -51 -39 -67 -33 -16 -45 -33 -24
-33 6 0 10 -4 10 -10 0 -5 -7 -10 -15 -10 -8 0 -15 -8 -15 -18 0 -12 19 -27
60 -45 57 -27 65 -28 159 -21 l99 7 6 39 c8 51 31 95 56 108 11 6 20 21 20 34
0 13 7 29 15 36 9 7 12 22 9 39 -4 18 1 35 13 50 l19 24 55 -18 c30 -10 70
-25 89 -33 31 -13 33 -16 15 -23 -14 -5 -5 -8 30 -8 52 0 114 17 68 18 -28 1
-29 9 -6 27 10 7 16 14 13 16 -3 3 -66 42 -140 88 -180 111 -182 113 -98 105
71 -8 118 -1 118 15 0 6 -8 10 -17 11 -11 0 -6 5 12 11 27 10 28 12 10 19 -13
5 -1 8 37 8 32 1 60 6 64 13 5 8 -12 10 -67 5 -65 -6 -81 -3 -125 17 -56 26
-72 42 -56 58 9 9 30 15 143 37 48 10 55 15 54 33 -1 16 -13 26 -47 37 -25 9
-43 21 -41 28 2 7 -8 13 -24 15 -21 2 -29 9 -31 27 -6 40 12 45 68 16 l52 -26
351 -5 c194 -3 377 -6 407 -7 64 -1 592 22 665 29 34 4 56 1 69 -9 18 -13 18
-15 -8 -59 -27 -47 -50 -62 -110 -73 -36 -7 -47 -27 -23 -42 6 -4 53 -10 102
-13 50 -3 83 -8 75 -12 -8 -3 -69 -15 -134 -27 -66 -11 -122 -23 -125 -26 -12
-12 18 -41 60 -57 61 -24 106 -22 182 7 37 13 69 20 72 15 3 -5 -30 -31 -74
-57 -44 -26 -80 -52 -81 -57 0 -14 178 0 196 15 12 10 14 23 10 51 -6 37 6 53
18 23 9 -24 24 -17 19 9 -6 31 23 48 87 50 35 1 54 -4 70 -19 28 -25 79 -113
110 -188 l24 -58 28 63 c32 69 59 102 100 124 52 27 52 14 1 -31 -38 -33 -63
-69 -95 -131 -70 -142 -116 -146 -251 -23 -41 38 -78 69 -82 69 -17 0 66 -128
121 -187 35 -37 59 -70 54 -73 -12 -7 54 -86 149 -180 56 -56 191 -235 191
-255 0 -3 -30 28 -67 69 -37 41 -69 74 -71 72 -1 -2 22 -40 52 -85 31 -45 56
-87 56 -93 0 -16 0 -16 -135 162 -145 190 -135 179 -135 148 0 -17 16 -42 48
-75 26 -26 75 -91 110 -143 l64 -95 -61 65 c-33 36 -60 62 -61 58 0 -4 32 -55
70 -114 64 -97 78 -124 65 -124 -2 0 -41 52 -86 116 -45 63 -83 113 -86 110
-5 -5 89 -168 114 -198 8 -9 11 -18 6 -21 -5 -3 -56 61 -113 143 -58 82 -106
145 -108 141 -1 -4 47 -87 108 -184 60 -97 110 -179 110 -182 0 -23 -31 15
-105 130 -48 74 -91 135 -96 135 -5 0 5 -24 22 -52 17 -29 53 -90 80 -136 81
-136 38 -92 -67 70 -55 83 -102 156 -106 162 -4 6 -10 7 -14 4 -3 -4 3 -19 13
-35 41 -59 122 -203 114 -203 -4 0 -25 25 -45 55 -37 56 -56 69 -56 38 0 -14
-6 -11 -24 12 -13 17 -33 41 -45 55 l-22 25 17 -35 c9 -19 24 -46 34 -60 40
-58 119 -200 112 -200 -5 0 -55 68 -112 150 -56 83 -105 148 -108 146 -2 -3
32 -65 77 -137 45 -73 80 -137 78 -142 -1 -5 -45 52 -96 127 -51 76 -95 135
-98 132 -3 -3 23 -50 57 -106 34 -56 60 -103 57 -106 -3 -4 -27 24 -53 60 -26
36 -50 64 -52 61 -3 -2 16 -41 42 -86 25 -45 45 -84 43 -86 -3 -3 -57 69 -99
131 -4 6 -10 8 -13 5 -3 -4 6 -26 20 -50 37 -65 30 -68 -17 -7 -22 29 -43 55
-45 57 -1 2 -5 2 -8 -1 -3 -3 9 -29 26 -57 45 -72 31 -73 -21 -1 -34 48 -46
57 -57 48 -10 -8 -20 -5 -40 13 l-27 24 19 -30 c10 -16 51 -79 92 -139 40 -60
72 -113 71 -118 -2 -6 -163 205 -210 276 -4 6 -10 7 -14 3 -4 -4 9 -31 29 -62
45 -67 47 -78 7 -40 -35 33 -38 28 -10 -17 31 -51 23 -57 -15 -14 -34 38 -46
35 -25 -5 13 -24 2 -25 -16 -2 -24 34 -25 5 -2 -34 37 -58 40 -63 35 -63 -3 0
-39 43 -82 96 -42 52 -79 93 -82 90 -3 -2 25 -48 62 -100 36 -53 63 -96 58
-95 -4 0 -44 45 -87 100 -44 54 -82 97 -84 94 -3 -3 5 -19 17 -36 13 -17 21
-32 19 -34 -2 -3 -30 11 -61 30 -68 41 -70 42 -62 14 5 -14 0 -28 -16 -45 -18
-20 -20 -26 -9 -39 7 -8 10 -19 6 -22 -4 -4 -18 6 -31 22 -31 40 -40 28 -11
-16 12 -19 31 -47 41 -64 17 -29 17 -29 -16 5 -19 19 -54 58 -78 85 -46 53
-46 47 1 -22 32 -47 30 -51 -7 -27 -34 22 -31 10 11 -48 61 -83 31 -64 -46 29
-93 112 -100 119 -100 107 0 -5 20 -37 44 -71 25 -34 42 -63 39 -67 -3 -3 -28
22 -56 55 -54 64 -70 72 -38 18 26 -42 27 -57 3 -36 -28 25 -37 20 -17 -9 22
-34 15 -39 -18 -13 l-27 20 0 -20 c0 -12 -4 -21 -10 -21 -5 0 -10 3 -10 8 0 4
-12 21 -26 37 -24 29 -26 25 -8 -19 7 -18 4 -18 -26 4 -34 24 -33 19 2 -32 24
-35 9 -36 -22 -3 -33 35 -36 24 -6 -24 25 -39 24 -55 -2 -29 -10 10 -15 10
-22 -2 -8 -12 -12 -11 -32 6 -41 37 -49 39 -43 7 6 -25 2 -23 -49 29 -31 31
-56 54 -56 52 0 -3 16 -28 35 -56 19 -29 32 -54 29 -57 -3 -3 -34 26 -70 64
-61 65 -63 67 -34 22 l31 -48 -44 31 c-45 33 -127 52 -127 31 0 -6 14 -30 31
-53 17 -25 26 -44 19 -46 -23 -8 -78 9 -124 38 -55 35 -57 36 -49 13 4 -11 -7
-6 -28 15 -50 46 -55 40 -14 -17 46 -64 44 -74 -5 -26 -40 39 -49 40 -30 4 13
-23 5 -24 -48 -5 -31 11 -42 12 -45 3 -3 -7 -24 7 -52 33 -38 37 -46 41 -40
22 6 -22 5 -23 -17 -17 -12 4 -35 14 -50 22 -32 15 -35 8 -12 -25 19 -28 14
-28 -46 3 -60 30 -64 31 -50 5 16 -29 1 -24 -38 13 -32 30 -34 30 -27 8 7 -23
5 -22 -43 13 -49 36 -69 36 -55 0 4 -11 0 -22 -12 -30 -15 -11 -20 -10 -36 9
-20 24 -25 9 -8 -26 9 -21 9 -21 -10 2 -15 16 -28 22 -43 18 -13 -4 -33 2 -51
15 l-29 21 7 -22 c10 -34 -7 -24 -40 22 -23 32 -31 38 -33 24 -3 -17 -5 -17
-28 -2 -21 14 -24 14 -24 0 0 -22 -15 -18 -33 7 -15 22 -16 22 -16 -24 -1 -27
-4 -48 -8 -48 -4 0 -22 15 -41 33 l-33 32 6 -30 7 -30 -27 30 -26 30 6 -27 c9
-47 -31 -36 -84 21 -59 63 -178 133 -202 118 -16 -10 -15 -13 5 -46 39 -63 40
-67 7 -36 -26 24 -34 27 -41 15 -5 -8 -10 -12 -12 -10 -4 4 -173 291 -186 314
-3 5 2 7 11 3 10 -3 17 -3 17 0 0 4 -28 65 -62 135 -58 121 -61 131 -50 162 7
18 12 53 12 79 0 37 11 69 53 150 46 89 52 107 45 135 -6 20 -5 40 2 53 6 11
9 33 5 48 -4 21 -2 30 9 34 14 5 16 32 16 172 0 103 4 165 10 165 6 0 10 83
10 228 0 125 5 243 10 262 6 19 12 69 15 110 3 62 8 77 25 89 11 7 20 23 20
35 0 13 23 42 62 77 l63 57 0 168 c0 148 -3 178 -24 243 -20 64 -21 80 -12
118 7 24 9 61 6 81 -11 62 -12 64 -35 50 -26 -16 -35 -3 -45 58 -6 40 -8 42
-25 32 -15 -10 -27 -10 -53 0 -54 19 -64 14 -28 -17 l34 -28 -36 -21 c-61 -39
-65 -48 -27 -86 31 -33 32 -34 12 -45 -32 -17 -58 -13 -123 20 -58 29 -60 31
-46 52 7 12 28 25 44 29 27 7 35 19 68 95 54 126 72 183 80 250 4 32 9 67 12
77 5 19 6 19 16 0 6 -10 35 -89 64 -174z m-211 157 c-3 -12 -8 -85 -12 -162
-6 -153 -15 -193 -44 -220 -32 -29 -33 -3 -5 180 33 221 34 225 52 225 11 0
14 -7 9 -23z m1934 -139 c0 -20 -32 -48 -56 -48 -36 0 -37 16 -1 39 36 23 57
27 57 9z m-493 -66 c-20 -22 -22 -46 -4 -38 71 29 247 56 247 37 0 -15 -47
-49 -86 -61 -32 -11 -38 -10 -58 9 l-22 21 -24 -25 c-17 -18 -34 -25 -62 -25
-22 0 -37 -4 -34 -9 3 -5 35 -6 71 -3 73 5 84 -5 30 -31 -49 -23 -98 -22 -121
4 -15 16 -16 23 -6 37 7 9 21 36 31 58 11 23 25 44 33 47 21 7 23 -1 5 -21z
m1333 -42 c28 18 76 11 100 -15 26 -28 24 -30 -53 -40 -32 -4 -55 -14 -70 -31
l-23 -25 -27 21 c-16 13 -27 31 -27 45 0 27 15 41 25 24 5 -6 13 -3 22 11 10
15 18 18 27 11 7 -6 17 -6 26 -1z m-798 -27 c32 -38 31 -43 -10 -43 -43 0 -62
21 -41 46 15 19 33 18 51 -3z m381 -80 c37 -70 110 -92 174 -52 45 28 56 15
17 -21 -41 -36 -106 -48 -137 -26 -12 9 -39 27 -59 41 -22 15 -38 33 -38 45 0
22 -12 31 -60 46 l-35 10 55 25 55 26 6 -31 c3 -17 13 -45 22 -63z m1822 11
c-16 -86 -46 -106 -84 -58 -30 39 -27 54 12 54 21 0 41 8 52 20 25 28 28 25
20 -16z m-2108 -41 c34 -35 36 -36 67 -24 44 18 108 33 114 27 14 -14 -30 -41
-141 -85 -22 -9 -27 -16 -22 -31 5 -16 2 -20 -19 -20 -33 0 -41 16 -22 45 23
35 20 55 -8 55 -42 0 -56 11 -56 41 0 44 42 40 87 -8z m-101 -48 c12 -18 22
-24 35 -20 30 10 22 -8 -14 -32 -41 -28 -45 -28 -49 -1 -2 13 -12 24 -26 28
-31 7 -32 19 -2 35 34 19 37 19 56 -10z m365 0 c37 -19 29 -35 -17 -35 -34 0
-45 -12 -23 -26 7 -4 48 -8 93 -9 107 -2 126 -13 126 -70 0 -49 -5 -53 -38
-29 -28 20 -43 10 -16 -11 10 -8 15 -15 9 -16 -5 -1 -14 -2 -20 -4 -5 -1 -19
-3 -30 -3 -16 -2 -13 -7 18 -33 20 -17 37 -35 37 -40 0 -15 -74 -10 -98 7 -26
18 -28 36 -7 54 11 9 15 27 13 59 -3 44 -5 46 -36 49 -19 2 -50 -6 -76 -18
-36 -18 -47 -20 -65 -10 -13 6 -24 10 -27 8 -2 -2 1 -42 6 -88 5 -46 7 -86 4
-89 -3 -3 -13 0 -22 5 -14 9 -17 28 -17 115 l0 104 60 5 c60 5 60 5 36 22 -21
15 -22 19 -10 34 12 15 44 32 62 33 4 1 21 -6 38 -14z m1763 -14 c10 -16 -35
-61 -85 -86 -26 -14 -64 -39 -84 -56 -33 -29 -35 -30 -35 -9 0 36 18 59 68 84
26 14 62 36 81 50 38 28 47 31 55 17z m151 -73 c3 -18 14 -79 24 -135 15 -83
16 -103 5 -103 -7 0 -19 10 -26 23 -12 21 -13 20 -19 -18 l-5 -40 -18 39 c-9
21 -19 36 -21 34 -5 -5 22 -136 35 -169 14 -33 59 -59 104 -59 46 0 54 17 32
73 -20 53 -20 87 -1 113 19 25 18 59 -4 172 l-18 92 38 0 c44 0 247 -34 304
-52 l40 -12 -70 -8 c-136 -16 -170 -41 -205 -156 -44 -144 -63 -295 -57 -462
7 -211 31 -343 178 -948 40 -166 41 -174 24 -192 -26 -29 -41 -25 -58 18 -16
39 -55 66 -81 56 -9 -4 -20 14 -37 60 -22 64 -48 93 -35 40 10 -40 17 -91 10
-76 -8 17 -24 15 -24 -3 0 -8 -4 -15 -8 -15 -20 0 -43 42 -75 140 -19 58 -53
156 -75 218 -22 62 -44 141 -47 176 -4 38 3 184 19 382 32 391 32 367 1 330
l-23 -29 -12 44 c-6 24 -20 76 -31 115 -27 98 -24 129 17 228 20 48 34 95 31
106 -7 28 12 25 22 -2 8 -22 9 -21 24 15 20 46 34 47 42 5z m-2342 -28 c14
-13 4 -52 -16 -64 -16 -9 -24 -5 -53 29 l-34 40 0 -32 c0 -30 -14 -52 -23 -36
-2 5 -8 25 -11 47 l-7 38 68 -7 c37 -4 72 -10 76 -15z m204 -6 c15 -20 19
-174 4 -174 -5 0 -22 20 -38 45 -32 52 -40 55 -49 20 -6 -26 -12 -29 -38 -19
-23 9 -20 28 9 62 30 36 31 44 5 60 -33 21 -13 35 43 29 33 -3 55 -11 64 -23z
m1927 -210 c-29 -97 -55 -178 -58 -181 -9 -10 -18 110 -12 159 4 28 16 68 27
89 20 41 76 109 89 109 4 0 -17 -79 -46 -176z m-2186 109 c2 -9 -9 -13 -37
-13 -30 0 -41 4 -41 16 0 11 9 14 37 12 20 -2 38 -9 41 -15z m1322 -31 c0 -9
-80 -32 -110 -32 -11 0 -20 4 -20 10 0 8 13 12 90 23 14 3 28 5 33 6 4 0 7 -3
7 -7z m-1268 -49 c10 -9 18 -24 18 -33 0 -24 -37 -60 -62 -60 -12 0 -30 -8
-41 -17 -18 -17 -19 -17 -33 2 -8 10 -14 34 -14 52 0 27 6 36 38 52 46 25 70
26 94 4z m393 -46 c17 -13 16 -15 -15 -25 -18 -7 -37 -12 -41 -12 -16 0 -9 29
9 39 22 14 25 13 47 -2z m-286 -29 c11 -27 -9 -54 -33 -45 -19 7 -21 38 -4 55
18 18 28 15 37 -10z m479 -74 c18 -12 22 -25 22 -65 0 -27 -4 -49 -8 -49 -18
0 -32 26 -32 62 l0 38 -49 0 c-54 0 -78 16 -34 23 57 8 79 7 101 -9z m-2818
-42 c40 -39 50 -55 50 -82 0 -19 -7 -38 -17 -45 -16 -12 -14 -17 20 -58 20
-25 34 -48 29 -51 -9 -5 -222 190 -222 204 0 5 12 10 27 12 21 2 29 10 37 36
5 17 13 32 17 32 5 0 32 -22 59 -48z m2371 10 c16 -18 29 -41 29 -52 0 -19 -7
-20 -107 -21 -122 0 -114 -13 15 -22 46 -4 88 -9 94 -13 43 -27 -172 -34 -227
-8 -62 29 -90 99 -55 134 20 20 30 22 122 18 98 -3 100 -3 129 -36z m284 12
c24 -22 34 -25 71 -19 52 7 59 -7 14 -30 -48 -25 -82 -19 -119 19 -51 53 -20
80 34 30z m-5 -143 c0 -6 -5 -13 -11 -17 -8 -4 -7 -9 2 -15 24 -15 49 -10 73
16 27 29 76 34 96 10 11 -13 9 -20 -11 -41 l-24 -26 -6 24 c-6 24 -7 24 -77 0
-41 -14 -45 -14 -64 6 -18 17 -19 23 -8 36 14 18 30 21 30 7z m-214 -65 c14
-11 19 -26 19 -60 0 -69 -6 -71 -131 -46 -136 26 -159 35 -185 71 l-20 29 23
9 c39 16 271 13 294 -3z m98 -39 c9 -13 4 -24 -22 -49 l-32 -33 0 64 c0 63 0
63 22 49 12 -8 27 -22 32 -31z m106 -50 c0 -20 4 -22 45 -19 57 5 57 -9 1 -42
-126 -73 -325 -86 -435 -26 -24 12 -57 58 -48 66 5 5 207 -34 216 -42 2 -2 -2
-10 -9 -19 -28 -34 59 -8 100 30 36 33 101 75 116 75 8 0 14 -10 14 -23z
m-2430 -41 c0 -30 -38 -277 -44 -283 -7 -7 -46 54 -61 98 -31 87 -7 166 58
194 44 19 47 19 47 -9z m5576 -323 c34 -77 88 -276 121 -443 24 -121 27 -159
27 -370 1 -219 -1 -241 -23 -319 -46 -161 -143 -261 -267 -277 -111 -13 -194
26 -305 144 -61 65 -199 270 -199 296 0 3 8 6 19 6 27 0 41 21 57 90 8 33 22
72 31 86 12 18 19 58 23 128 l7 101 2 -110 c1 -80 4 -105 12 -92 5 9 23 24 39
32 16 8 42 36 57 62 l28 47 11 -39 c11 -35 13 -36 13 -12 1 15 6 27 11 27 6 0
10 18 10 41 0 41 19 47 21 6 2 -39 67 178 84 280 9 54 22 103 29 108 8 6 10
17 5 30 -15 39 -10 55 16 55 50 0 82 26 104 85 12 31 21 62 21 69 0 12 9 26
17 26 2 0 15 -26 29 -57z m-2306 -235 c0 -3 -15 -9 -32 -13 -50 -10 -78 -32
-78 -60 0 -13 -4 -27 -10 -30 -15 -10 -12 58 5 98 8 20 15 49 15 65 0 16 3 32
7 36 7 7 92 -81 93 -96z m984 -120 c10 -73 20 -146 22 -163 l5 -30 -20 35
c-23 42 -46 131 -56 212 -7 60 -2 78 19 78 8 0 18 -43 30 -132z m-2999 37 c8
-35 15 -49 26 -46 7 2 21 6 31 8 23 7 31 -28 23 -104 -10 -92 -49 -128 -90
-83 -12 13 -31 20 -57 20 -108 0 -101 140 10 187 29 12 32 16 21 29 -10 12
-23 14 -51 10 -21 -4 -38 -4 -38 -1 0 11 65 35 90 32 20 -2 26 -10 35 -52z
m2153 -9 c26 -26 23 -119 -4 -146 l-21 -21 -64 24 c-35 14 -72 28 -81 32 -15
6 -18 1 -18 -31 0 -49 -8 -39 -25 33 -19 77 -19 80 8 106 19 20 32 22 105 21
64 -1 87 -5 100 -18z m-164 -251 c57 -29 110 -32 164 -10 l37 16 -23 -23 c-19
-19 -35 -23 -103 -27 -73 -3 -83 -1 -105 20 -13 12 -24 28 -24 36 0 16 -4 17
54 -12z m607 -401 c13 -16 12 -17 -8 -12 -14 4 -23 1 -25 -8 -2 -10 -10 -8
-32 9 -25 20 -27 26 -17 45 l12 23 28 -20 c15 -11 34 -28 42 -37z"/>
<path d="M8176 7929 c-45 -35 -25 -119 30 -119 23 0 24 2 24 70 0 78 -8 85
-54 49z"/>
<path d="M2803 7254 c-3 -8 1 -22 8 -29 12 -12 17 -12 33 0 11 8 16 21 13 30
-8 20 -46 20 -54 -1z"/>
<path d="M4070 5468 c0 -9 -6 -18 -12 -20 -8 -3 -3 -10 12 -18 14 -7 37 -25
52 -41 15 -17 37 -29 50 -28 l23 0 -22 11 c-27 13 -28 21 -8 38 25 21 17 33
-16 26 -25 -5 -35 -1 -54 22 -19 21 -24 23 -25 10z"/>
<path d="M4243 5409 c33 -17 40 -18 57 -6 28 19 15 27 -44 27 l-51 -1 38 -20z"/>
<path d="M6060 5201 c0 -12 72 -51 95 -51 8 0 15 4 15 9 0 8 -19 17 -97 48 -7
3 -13 0 -13 -6z"/>
<path d="M4798 5173 c-26 -14 -45 -30 -42 -34 7 -12 104 32 104 47 0 19 -8 17
-62 -13z"/>
<path d="M4868 5078 c-37 -21 -67 -62 -54 -75 4 -4 28 14 53 40 26 25 45 48
42 51 -2 3 -21 -5 -41 -16z"/>
<path d="M5935 5021 c4 -7 23 -19 41 -27 27 -11 39 -12 56 -3 18 10 19 13 5
20 -8 5 -37 12 -63 16 -37 5 -45 3 -39 -6z"/>
<path d="M4862 4604 c-19 -13 -20 -19 -11 -36 11 -21 12 -21 26 -2 28 38 35
54 21 54 -8 0 -24 -7 -36 -16z"/>
<path d="M4400 4582 c0 -11 41 -25 113 -38 24 -4 37 -2 37 4 0 12 -48 28 -112
38 -25 4 -38 3 -38 -4z"/>
<path d="M6030 4555 c-6 -8 -9 -23 -6 -33 5 -13 -2 -30 -20 -51 -30 -36 -12
-43 29 -11 27 22 41 61 32 91 -8 23 -18 24 -35 4z"/>
<path d="M4457 4250 c-6 -23 38 -84 54 -74 16 10 9 32 -20 64 -27 30 -29 30
-34 10z"/>
<path d="M4889 3676 c6 -7 8 -21 5 -31 -6 -15 -1 -14 34 6 23 13 42 27 42 32
0 4 -21 7 -46 7 -38 0 -44 -2 -35 -14z"/>
<path d="M5385 3520 c-7 -12 18 -24 37 -18 8 3 5 9 -9 16 -14 8 -24 9 -28 2z"/>
<path d="M5460 3515 c-10 -13 -9 -15 11 -15 13 0 48 -11 77 -25 62 -29 90 -31
98 -10 8 21 41 19 52 -2 16 -32 44 -163 38 -178 -6 -16 -46 -21 -46 -6 0 18
-100 119 -132 134 -56 26 -143 32 -193 13 -63 -25 -145 -123 -145 -176 0 -20
30 -9 46 18 10 15 46 55 80 88 61 59 94 82 94 65 0 -5 15 -12 33 -15 46 -9
104 -53 155 -116 56 -70 82 -81 120 -53 33 25 33 44 1 166 -14 53 -28 87 -36
87 -7 0 -13 5 -13 10 0 6 -13 10 -29 10 -17 0 -33 -4 -36 -10 -3 -5 -11 -10
-16 -10 -6 0 -7 5 -3 12 5 8 2 9 -10 5 -9 -4 -36 0 -59 8 -53 19 -71 19 -87 0z"/>
<path d="M5215 3493 c-22 -7 -50 -25 -62 -38 -13 -14 -18 -20 -11 -15 18 15
28 12 28 -9 0 -11 -11 -28 -24 -38 -14 -10 -43 -31 -65 -47 l-41 -30 0 -73 c0
-42 4 -73 10 -73 6 0 10 12 10 28 0 42 54 146 100 192 23 23 72 56 108 72 48
22 62 32 51 39 -19 12 -56 9 -104 -8z"/>
<path d="M6575 3239 c40 -49 79 -89 87 -89 4 0 8 9 8 20 0 28 -49 78 -85 86
l-30 7 20 -24z"/>
<path d="M5208 3184 c-5 -39 4 -76 21 -82 10 -3 12 5 6 39 -10 61 -21 79 -27
43z"/>
<path d="M5026 3127 c-9 -46 11 -185 31 -224 27 -50 129 -149 178 -173 25 -12
69 -22 102 -24 32 -2 63 -5 69 -7 7 -2 12 1 12 6 -1 6 -24 15 -52 20 -179 36
-319 197 -317 367 1 64 -14 85 -23 35z"/>
<path d="M5530 3115 c-7 -9 -13 -32 -14 -53 -1 -33 1 -37 23 -34 13 1 39 -7
57 -18 32 -18 34 -18 34 -1 0 25 -32 51 -63 51 -35 0 -36 27 -2 36 13 3 87 4
165 2 77 -1 140 -2 140 -1 0 1 -3 8 -6 17 -9 23 -315 24 -334 1z"/>
<path d="M4680 3110 c19 -5 69 -11 110 -14 56 -4 66 -3 40 4 -19 5 -69 11
-110 14 -56 4 -66 3 -40 -4z"/>
<path d="M5819 3060 c-20 -11 -40 -27 -45 -37 -4 -10 -10 -74 -13 -143 l-6
-125 -27 -3 c-18 -2 -30 3 -37 15 -27 47 -25 47 -105 8 -42 -21 -76 -39 -76
-41 0 -2 9 -8 20 -14 14 -8 30 -6 61 6 34 14 47 15 73 6 47 -17 91 -15 109 6
13 15 17 39 17 115 0 58 -4 97 -10 97 -19 0 -10 27 21 56 21 20 38 28 56 26
21 -3 25 0 19 13 -3 9 -6 21 -6 26 0 13 -10 11 -51 -11z m-42 -237 c-2 -21 -4
-6 -4 32 0 39 2 55 4 38 2 -18 2 -50 0 -70z"/>
<path d="M5215 3061 c-8 -13 13 -97 36 -142 31 -62 120 -129 153 -116 20 8 21
27 1 27 -41 0 -165 157 -165 209 0 23 -16 36 -25 22z"/>
<path d="M5620 2940 c0 -34 -55 -104 -76 -96 -8 3 -19 -4 -25 -15 -6 -13 -18
-19 -28 -16 -10 2 -26 -2 -37 -11 -17 -13 -14 -14 33 -9 66 8 109 30 133 70
21 33 27 107 10 107 -5 0 -10 -13 -10 -30z"/>
<path d="M5366 5091 c-4 -5 3 -15 15 -21 28 -15 34 -7 10 14 -12 11 -21 13
-25 7z"/>
<path d="M5361 8841 c-19 -12 -6 -17 88 -35 128 -25 261 -18 261 12 0 9 -212
32 -290 32 -25 0 -51 -4 -59 -9z"/>
<path d="M5101 8711 c-9 -16 -47 -47 -156 -125 -35 -25 -6 -38 40 -17 42 18
145 124 145 148 0 19 -18 16 -29 -6z"/>
<path d="M2700 8635 c0 -9 59 -35 80 -35 33 0 23 16 -19 28 -41 13 -61 15 -61
7z"/>
<path d="M4971 8423 c-34 -48 -35 -59 -2 -48 31 9 51 33 51 60 0 40 -15 36
-49 -12z"/>
<path d="M4700 8351 c0 -8 81 -61 94 -61 3 0 6 7 6 15 0 9 -20 24 -46 35 -52
23 -54 23 -54 11z"/>
<path d="M7951 8267 c-9 -11 -3 -18 29 -32 49 -22 57 -17 29 18 -23 30 -41 34
-58 14z"/>
<path d="M5426 8111 c-6 -9 96 -91 114 -91 19 0 10 38 -16 69 -19 23 -34 31
-59 31 -19 0 -36 -4 -39 -9z"/>
<path d="M1680 6605 c0 -49 23 -64 34 -22 12 44 7 67 -14 67 -17 0 -20 -7 -20
-45z"/>
<path d="M2648 6184 c-22 -47 -37 -89 -33 -92 12 -12 53 46 70 100 9 29 19 59
21 66 3 6 0 12 -6 12 -6 0 -29 -39 -52 -86z"/>
<path d="M1952 3855 c0 -16 2 -22 5 -12 2 9 2 23 0 30 -3 6 -5 -1 -5 -18z"/>
<path d="M1838 2851 c-123 -40 -226 -132 -254 -229 -31 -106 7 -239 84 -300
51 -41 73 -45 123 -27 77 29 84 29 99 1 12 -23 30 -35 30 -21 0 16 -102 205
-111 205 -6 0 -7 -9 -3 -22 16 -49 10 -62 -36 -85 -59 -30 -86 -29 -120 5
-104 105 -29 260 175 360 183 91 319 80 373 -30 37 -73 25 -117 -50 -190 -32
-32 -55 -58 -51 -58 14 -1 192 85 193 92 0 4 -10 8 -22 10 -20 3 -24 11 -30
63 -8 73 -17 98 -56 151 -46 63 -117 94 -211 93 -45 0 -100 -8 -133 -18z"/>
<path d="M8730 2517 c0 -12 -9 -39 -19 -60 -19 -37 -14 -50 9 -22 7 8 16 15
21 15 4 0 51 -26 104 -59 l95 -59 -30 -12 c-73 -30 -93 -140 -41 -222 89 -140
306 -175 366 -59 8 17 15 42 15 56 0 19 5 25 17 23 12 -2 19 6 23 27 4 17 12
40 18 52 17 31 15 52 -3 29 -8 -11 -22 -17 -32 -14 -10 3 -131 78 -269 166
-138 89 -256 162 -262 162 -7 0 -12 -10 -12 -23z m276 -233 c63 -34 162 -100
197 -132 53 -50 23 -127 -49 -126 -43 0 -140 41 -192 81 -38 28 -92 108 -92
134 0 21 48 69 70 69 9 0 39 -12 66 -26z"/>
<path d="M2032 2252 c-108 -39 -172 -117 -172 -210 0 -81 34 -133 101 -152 35
-10 99 -4 99 10 0 4 -22 7 -50 7 -41 -2 -54 2 -75 24 -40 40 -42 85 -6 141 29
45 126 122 142 112 5 -2 34 -42 66 -87 31 -45 62 -85 67 -89 24 -16 66 51 66
107 0 116 -113 181 -238 137z m188 -52 c11 -11 20 -31 20 -44 0 -27 -35 -76
-55 -76 -14 0 -85 98 -85 118 0 27 94 28 120 2z"/>
<path d="M8502 2148 c-27 -27 -6 -68 34 -68 31 0 48 24 35 48 -16 31 -49 40
-69 20z"/>
<path d="M8690 2017 c0 -7 -9 -30 -20 -52 -25 -49 -25 -53 0 -30 18 16 21 16
44 2 57 -38 248 -192 253 -204 3 -7 0 -20 -7 -28 -7 -9 -10 -18 -7 -21 3 -3
31 27 62 66 32 39 55 73 51 77 -3 3 -14 -1 -24 -10 -10 -10 -21 -17 -24 -17
-3 0 -72 52 -154 115 -145 112 -174 129 -174 102z"/>
<path d="M2299 1927 c-92 -35 -151 -93 -176 -176 -38 -127 61 -238 185 -205
41 11 23 25 -23 18 -55 -8 -90 11 -110 60 -22 52 -4 99 66 168 40 41 63 57 72
51 8 -4 44 -43 81 -85 37 -43 72 -78 77 -78 19 0 49 66 49 108 0 83 -52 139
-137 148 -28 2 -63 -1 -84 -9z m166 -52 c14 -13 25 -32 25 -41 0 -20 -38 -84
-50 -84 -13 0 -100 104 -97 115 4 10 61 33 85 34 7 1 24 -10 37 -24z"/>
<path d="M8549 1820 c-124 -37 -146 -187 -45 -307 64 -76 198 -107 266 -60 54
36 75 72 74 125 -1 50 -19 96 -35 87 -6 -4 -5 -13 1 -25 5 -10 10 -37 10 -58
0 -52 -43 -92 -98 -92 -43 0 -123 43 -165 88 l-29 30 77 86 c85 95 86 106 16
126 -40 11 -37 11 -72 0z m36 -52 c37 -16 31 -38 -24 -92 l-50 -49 -20 34
c-26 43 -27 73 -1 99 23 23 57 26 95 8z"/>
<path d="M2585 1681 c-2 -5 2 -14 10 -21 8 -7 15 -20 15 -29 0 -9 -52 -68
-115 -131 -107 -106 -117 -114 -136 -102 -45 29 -30 -3 29 -60 61 -59 87 -71
60 -29 -12 20 -5 29 108 141 127 126 146 137 192 104 14 -10 22 -25 22 -45 0
-24 -22 -53 -111 -149 -108 -116 -132 -133 -157 -108 -6 6 -14 9 -17 7 -2 -3
25 -34 60 -69 61 -61 91 -76 64 -32 -12 19 -4 30 85 122 112 117 136 152 136
198 0 59 -32 89 -114 107 -22 5 -26 9 -17 18 19 19 12 37 -13 37 -13 0 -39 11
-59 25 -20 13 -39 20 -42 16z"/>
<path d="M7915 1552 c-40 -63 -41 -66 -17 -53 11 6 27 11 34 11 18 0 398 -425
398 -444 0 -8 -4 -18 -10 -21 -5 -3 -10 -11 -10 -16 0 -12 33 13 97 72 25 22
42 43 39 47 -4 3 -12 0 -18 -6 -7 -7 -18 -12 -24 -12 -12 0 -190 191 -221 237
-29 43 5 103 57 103 23 0 47 -20 132 -111 121 -130 124 -134 109 -165 -16 -36
-1 -29 62 27 58 51 75 79 36 58 -20 -10 -27 -5 -77 52 -31 35 -86 94 -122 132
-57 57 -72 67 -101 67 -60 0 -96 -31 -126 -108 -8 -22 -14 -18 -98 75 -48 54
-93 99 -99 100 -6 2 -24 -19 -41 -45z"/>
<path d="M3181 1418 c-64 -78 -66 -103 -5 -49 32 28 56 41 77 41 30 0 107 -37
107 -52 0 -5 -75 -117 -166 -251 -103 -150 -173 -243 -184 -245 -11 -2 -29 2
-41 8 -15 9 -20 9 -18 1 5 -13 181 -132 187 -126 2 2 -6 17 -18 33 l-23 30
163 239 c89 131 167 244 174 250 18 19 74 -20 93 -65 14 -34 14 -41 -1 -82
-27 -70 -29 -80 -19 -80 11 0 93 133 93 149 0 8 -281 208 -356 254 -9 5 -30
-14 -63 -55z"/>
<path d="M7782 1438 c-29 -29 7 -86 46 -74 28 9 35 35 17 62 -17 26 -44 31
-63 12z"/>
<path d="M7592 1298 c-27 -27 -6 -68 35 -68 32 0 46 31 27 58 -17 24 -44 28
-62 10z"/>
<path d="M7930 1260 c-7 -17 -27 -42 -44 -55 -22 -18 -26 -25 -14 -25 9 0 20
5 23 10 16 26 47 -6 194 -204 160 -215 181 -246 181 -265 0 -18 -18 -12 -25 8
-13 42 -75 31 -75 -13 0 -49 65 -66 103 -27 28 27 29 110 3 161 -21 40 -318
439 -327 440 -4 0 -12 -14 -19 -30z"/>
<path d="M7740 1132 c0 -5 -16 -27 -36 -50 -19 -23 -31 -42 -25 -42 5 0 13 5
16 10 15 25 38 1 125 -131 l94 -140 -18 -30 c-9 -16 -15 -29 -12 -29 10 0 145
90 151 101 5 7 -4 8 -27 4 l-34 -6 -107 160 c-95 142 -127 181 -127 153z"/>
<path d="M7170 1080 c-36 -16 -69 -31 -75 -33 -24 -10 5 -16 30 -7 18 7 32 7
38 1 8 -8 56 -394 57 -459 0 -17 -30 13 -117 115 -64 76 -134 158 -155 182
-21 24 -38 49 -38 56 0 7 13 18 30 25 26 11 70 49 44 39 -98 -38 -244 -104
-244 -110 0 -4 16 -5 35 -2 22 4 41 1 52 -8 9 -8 105 -118 213 -244 109 -127
205 -236 214 -244 20 -17 20 -17 1 124 -22 161 -54 516 -48 534 3 9 17 26 32
38 36 31 11 28 -69 -7z"/>
<path d="M7540 1010 c-11 -11 -20 -29 -20 -40 0 -24 -15 -27 -24 -5 -4 12 -15
6 -46 -25 -22 -22 -46 -41 -52 -41 -7 -1 3 -4 22 -8 38 -7 57 -33 155 -215 46
-84 47 -88 30 -106 -10 -11 -16 -20 -13 -20 15 0 157 88 152 93 -4 3 -16 2
-26 -4 -27 -14 -32 -8 -109 130 -54 98 -63 122 -64 165 0 38 4 51 15 51 8 0
17 -11 20 -25 5 -20 12 -25 35 -25 25 0 30 4 33 28 7 59 -65 90 -108 47z"/>
<path d="M3533 930 c-51 -31 -56 -99 -9 -108 30 -6 49 19 43 55 -5 27 -1 36
17 48 25 16 49 12 79 -13 21 -19 22 -48 1 -98 -28 -69 -38 -75 -114 -68 -107
10 -174 -34 -174 -114 0 -64 83 -105 146 -71 15 8 19 8 13 -1 -15 -23 5 -61
40 -76 36 -15 85 -10 85 8 0 6 -7 8 -15 4 -21 -8 -45 3 -45 20 0 8 32 78 71
155 39 78 71 155 71 171 2 51 -74 108 -144 108 -18 0 -48 -9 -65 -20z m70
-216 c8 -8 -29 -82 -56 -111 -22 -25 -66 -30 -85 -11 -22 22 -14 68 17 99 24
23 38 29 74 29 24 0 46 -3 50 -6z"/>
<path d="M4278 878 c12 -6 22 -20 22 -32 0 -17 -148 -474 -175 -539 -4 -10
-18 -17 -33 -17 -15 0 -22 -4 -17 -9 16 -14 144 -53 158 -48 7 3 5 8 -8 13
-11 4 -23 12 -26 16 -3 5 38 145 92 310 54 166 96 305 93 310 -3 4 -33 8 -67
7 -52 0 -58 -2 -39 -11z"/>
<path d="M3892 775 c-64 -28 -77 -125 -17 -125 33 0 49 31 33 66 -11 23 -10
28 7 40 25 19 55 18 84 -2 20 -14 23 -23 18 -59 -2 -24 -13 -60 -23 -81 l-19
-39 -57 3 c-134 8 -224 -94 -154 -174 18 -22 32 -28 62 -28 22 1 49 4 62 9 19
6 22 4 22 -18 0 -31 18 -46 62 -53 22 -4 40 0 53 10 19 16 19 16 -6 11 -16 -4
-30 -1 -38 9 -10 12 -2 41 48 165 34 82 61 160 61 171 0 37 -20 61 -73 86 -60
27 -79 29 -125 9z m65 -223 c17 -11 -40 -130 -69 -141 -54 -20 -91 24 -68 80
21 51 98 86 137 61z"/>
<path d="M5022 704 c-60 -30 -101 -75 -140 -154 -25 -51 -27 -64 -27 -180 0
-116 2 -129 27 -175 33 -63 70 -98 131 -125 99 -44 213 -35 269 20 22 23 28
37 28 74 0 50 19 70 58 59 12 -3 22 -1 22 5 0 10 -38 17 -157 28 -47 4 -73 3
-73 -3 0 -6 14 -13 30 -17 37 -7 44 -23 35 -82 -16 -107 -126 -128 -211 -40
-51 54 -69 114 -68 226 1 212 90 370 208 370 90 0 152 -65 160 -168 5 -69 20
-66 27 5 3 32 10 81 14 108 8 49 8 50 -12 32 -19 -17 -22 -16 -84 13 -85 40
-162 41 -237 4z"/>
<path d="M6463 579 c-17 -5 -43 -23 -57 -39 -29 -35 -36 -37 -36 -10 0 23 -13
26 -29 7 -6 -8 -29 -22 -51 -32 -47 -21 -52 -33 -12 -27 l28 4 39 -167 39
-167 -24 -19 -25 -20 35 6 c56 10 140 35 140 41 0 4 -9 4 -20 1 -10 -3 -23 0
-28 7 -11 13 -72 278 -72 310 0 26 30 62 60 71 52 16 74 -25 120 -225 25 -107
25 -127 -1 -140 -11 -7 -18 -14 -15 -17 8 -8 156 28 156 38 0 5 -7 9 -15 9
-21 0 -29 20 -66 174 -43 182 -77 222 -166 195z"/>
<path d="M5996 490 c-108 -34 -154 -197 -92 -324 36 -74 85 -108 155 -108 75
0 121 34 142 104 10 38 -5 36 -21 -2 -16 -39 -55 -70 -89 -70 -39 0 -85 33
-105 73 -20 44 -41 141 -33 160 3 9 39 18 112 27 119 15 129 22 101 75 -29 54
-108 84 -170 65z m92 -49 c36 -54 28 -65 -56 -75 -40 -5 -75 -6 -78 -3 -3 3 0
23 6 46 20 77 86 93 128 32z"/>
<path d="M5570 459 c-86 -35 -133 -172 -99 -292 12 -43 59 -101 100 -123 41
-21 106 -18 146 7 31 19 63 64 63 89 0 20 -18 9 -29 -18 -14 -33 -58 -62 -96
-62 -37 0 -90 55 -105 109 -6 23 -10 65 -8 94 l3 52 109 7 c60 4 114 12 119
17 15 15 -24 83 -62 108 -36 25 -96 30 -141 12z m101 -28 c32 -32 39 -75 13
-85 -23 -9 -132 -7 -138 2 -9 15 33 92 56 102 34 13 37 12 69 -19z"/>
<path d="M4376 258 c-31 -44 -9 -86 39 -74 52 13 19 -65 -39 -90 l-31 -13 31
-1 c52 0 104 62 104 126 0 30 -41 74 -69 74 -11 0 -27 -10 -35 -22z"/>
</g>
</svg>
